<?xml version="1.0" encoding="UTF-8"?>
<svg width="452px" height="349px" viewBox="0 0 452 349" version="1.1" xmlns="http://www.w3.org/2000/svg" xmlns:xlink="http://www.w3.org/1999/xlink">
    <title>item/logo/black</title>
    <defs>
        <polygon id="path-1" points="0.4037 0.0323 59.7107 0.0323 59.7107 82 0.4037 82"></polygon>
        <polygon id="path-3" points="0.983663718 0.5533 53.3036 0.5533 53.3036 84 0.983663718 84"></polygon>
    </defs>
    <g id="item/logo/black" stroke="none" stroke-width="1" fill="none" fill-rule="evenodd">
        <g id="logo">
            <path d="M44.5222,33.6768 C46.0012,33.6768 46.4932,33.0198 46.4932,31.5388 L46.4932,28.9098 C46.4932,25.6298 46.0012,23.1608 44.8532,21.3548 C43.3732,19.2178 40.9102,18.4008 37.2922,18.4008 L35.8172,18.4008 C32.8572,18.4008 30.3932,19.0578 28.9132,20.6978 C27.2732,22.5038 26.4502,25.2988 26.4502,29.5678 L26.4502,33.6768 L44.5222,33.6768 Z M43.5392,62.2648 C48.7912,62.2648 56.8432,61.1108 60.9472,60.1268 C61.7702,59.9608 62.9242,59.6298 64.0672,59.6298 C65.5472,59.6298 66.6972,60.7838 67.0282,62.4248 L68.3422,70.6438 C68.6682,72.2828 69.0002,73.9238 69.0002,75.0778 C69.0002,77.2098 68.1772,78.3648 64.7252,79.5068 C58.1582,81.8108 47.9732,83.4498 39.9202,83.4498 L36.8002,83.4498 C23.8212,83.4498 13.8022,80.6618 8.2182,75.0778 C1.6462,68.5058 0.0002,60.1268 0.0002,46.8168 L0.0002,37.6198 C0.0002,21.1898 4.2752,12.3198 9.8592,7.3928 C15.2832,2.6258 23.8212,0.0028 35.6512,0.0028 L37.9492,0.0028 C49.7792,0.0028 58.3242,3.2828 62.7582,8.2158 C68.5082,14.6228 70.6402,23.4918 70.6402,37.6198 L70.6402,46.1648 C70.6402,49.6118 69.1662,50.7598 65.8792,50.7598 L26.4502,50.7598 L26.4502,52.0738 C26.4502,59.7948 30.2282,62.2648 41.7262,62.2648 L43.5392,62.2648 Z" id="Fill-1" fill="#1F201F"></path>
            <path d="M123.3142,0 C133.0062,0 139.9052,2.298 144.1732,6.738 C148.6092,11.333 150.2552,17.415 150.2552,28.416 L150.2552,77.213 C150.2552,80.333 149.1062,81.974 144.6662,81.974 L129.5542,81.974 C125.1202,81.974 123.9712,80.333 123.9712,77.213 L123.9712,30.72 C123.9712,26.942 123.4792,24.639 122.1652,23.164 C120.8502,21.684 118.2212,21.026 114.9352,21.026 L113.9462,21.026 C110.6662,21.026 108.0372,21.684 106.7222,23.164 C105.4082,24.639 104.9172,26.776 104.9172,30.72 L104.9172,77.213 C104.9172,80.333 103.7622,81.974 99.3272,81.974 L84.2152,81.974 C79.7812,81.974 78.6262,80.333 78.6262,77.213 L78.6262,6.082 C78.6262,2.789 79.9412,1.48 84.2152,1.48 L91.9372,1.48 C95.7152,1.48 97.0292,2.132 98.0122,5.259 L99.0022,8.379 L99.4932,8.379 C104.7512,2.789 112.3062,0 121.9992,0 L123.3142,0 Z" id="Fill-3" fill="#1F201F"></path>
            <path d="M202.7898,33.6768 C204.2698,33.6768 204.7618,33.0198 204.7618,31.5388 L204.7618,28.9098 C204.7618,25.6298 204.2698,23.1608 203.1148,21.3548 C201.6418,19.2178 199.1718,18.4008 195.5658,18.4008 L194.0858,18.4008 C191.1248,18.4008 188.6618,19.0578 187.1818,20.6978 C185.5408,22.5038 184.7188,25.2988 184.7188,29.5678 L184.7188,33.6768 L202.7898,33.6768 Z M201.8068,62.2648 C207.0588,62.2648 215.1118,61.1108 219.2158,60.1268 C220.0378,59.9608 221.1868,59.6298 222.3418,59.6298 C223.8158,59.6298 224.9648,60.7838 225.2958,62.4248 L226.6098,70.6438 C226.9418,72.2828 227.2688,73.9238 227.2688,75.0778 C227.2688,77.2098 226.4448,78.3648 222.9928,79.5068 C216.4268,81.8108 206.2418,83.4498 198.1888,83.4498 L195.0678,83.4498 C182.0888,83.4498 172.0698,80.6618 166.4868,75.0778 C159.9138,68.5058 158.2688,60.1268 158.2688,46.8168 L158.2688,37.6198 C158.2688,21.1898 162.5428,12.3198 168.1268,7.3928 C173.5508,2.6258 182.0888,0.0028 193.9198,0.0028 L196.2168,0.0028 C208.0478,0.0028 216.5928,3.2828 221.0268,8.2158 C226.7758,14.6228 228.9078,23.4918 228.9078,37.6198 L228.9078,46.1648 C228.9078,49.6118 227.4338,50.7598 224.1468,50.7598 L184.7188,50.7598 L184.7188,52.0738 C184.7188,59.7948 188.4958,62.2648 200.0008,62.2648 L201.8068,62.2648 Z" id="Fill-5" fill="#1F201F"></path>
            <path d="M258.0544,10.3486 C261.9974,3.9426 267.4154,1.4796 276.4514,1.4796 L283.0244,1.4796 C286.4764,1.4796 287.7904,2.3026 287.7904,6.0796 L287.7904,18.0706 C287.7904,21.6826 286.6364,22.6706 283.3554,22.6706 L278.4234,22.6706 C272.1824,22.6706 268.2394,23.8206 265.9414,26.1226 C263.8034,28.2546 263.1474,32.0336 263.1474,37.4556 L263.1474,77.2116 C263.1474,80.3316 261.9974,81.9716 257.5574,81.9716 L242.4464,81.9716 C238.0114,81.9716 236.8624,80.3316 236.8624,77.2116 L236.8624,6.0796 C236.8624,2.7936 238.1764,1.4796 242.4464,1.4796 L250.3334,1.4796 C254.1114,1.4796 255.4254,2.3026 256.2484,5.2566 L257.5574,10.3486 L258.0544,10.3486 Z" id="Fill-7" fill="#1F201F"></path>
            <path d="M330.5535,53.8838 C334.3305,53.8838 336.9655,52.8958 338.2745,51.5868 C340.2455,49.6148 341.0695,46.9858 341.0695,40.4128 L341.0695,34.0068 C341.0695,27.4338 340.2455,24.8048 338.2745,22.8328 C336.9655,21.5188 334.3305,20.5358 330.5535,20.5358 L329.4045,20.5358 C325.6265,20.5358 322.9975,21.5188 321.6835,22.8328 C319.7175,24.8048 318.8945,27.4338 318.8945,34.0068 L318.8945,40.4128 C318.8945,46.9858 319.7175,49.6148 321.6835,51.5868 C322.9975,52.8958 325.6265,53.8838 329.4045,53.8838 L330.5535,53.8838 Z M415.3215,111.3788 C414.0065,114.0078 412.6925,114.8308 410.7205,114.8308 C409.4115,114.8308 407.7655,114.3398 405.9595,113.5168 L397.5805,109.8988 C394.6205,108.5898 393.3125,107.4358 393.3125,105.7948 C393.3125,105.1378 393.4725,104.3158 394.1295,103.0008 C397.5805,96.1028 402.1825,87.2328 403.6565,83.2888 C399.2215,81.6488 396.1005,79.0198 392.9805,72.1148 C387.8885,61.1128 381.3165,37.4528 377.0465,19.0558 L371.7885,19.0558 C369.4915,19.0558 367.5195,19.3868 365.7065,20.0378 C366.5315,23.4898 367.0225,26.9428 367.0225,31.7028 L367.0225,42.7108 C367.0225,54.7068 364.2335,62.0968 357.3345,66.6968 C365.7065,71.1328 371.1315,78.6878 371.1315,87.2328 L371.1315,88.3808 C371.1315,103.4978 360.1235,112.6938 332.5255,112.6938 L329.4045,112.6938 C318.8945,112.6938 305.7485,110.0648 297.2045,106.7788 C294.0845,105.6288 293.1015,103.6568 293.9245,100.5368 L296.8795,90.0278 C297.7015,86.9008 299.1765,85.5858 302.7945,86.7398 C311.3325,89.5358 322.1745,91.5008 328.5815,91.5008 L330.8845,91.5008 C341.0695,91.5008 345.1725,88.3808 345.1725,83.1228 L345.1725,82.6318 C345.1725,79.3458 343.6985,76.7158 340.2455,74.0868 C338.2745,74.2528 335.1545,74.4188 332.1995,74.4188 L327.7645,74.4188 C304.9265,74.4188 292.9355,64.7258 292.9355,42.7108 L292.9355,31.7028 C292.9355,9.6948 303.2805,0.0008 328.9125,0.0008 L331.2105,0.0008 C341.7265,0.0008 349.6075,1.3158 355.3635,4.6018 C359.4665,2.6298 364.5645,1.4818 370.6395,1.4818 L394.2945,1.4818 C397.9075,1.4818 399.3875,2.1328 400.0445,5.4188 C403.3305,23.1648 408.2575,44.8488 412.8585,60.4568 L413.6805,60.4568 C419.0995,45.5058 424.1915,20.0378 426.4935,5.9098 C426.9865,2.4638 428.4665,1.4818 431.7465,1.4818 L446.8635,1.4818 C450.6415,1.4818 451.7895,2.7898 451.2985,6.4078 C447.0295,35.8128 434.0495,76.5568 415.3215,111.3788 L415.3215,111.3788 Z" id="Fill-9" fill="#1F201F"></path>
            <path d="M26.3406,216.2021 C18.6196,216.2021 9.0926,214.5561 2.3546,212.0941 C0.8796,211.6011 0.0566,211.1101 0.0566,209.7961 C0.0566,208.8061 0.3816,207.4921 1.0396,204.8691 L1.8616,201.9091 C2.3546,200.1021 3.0116,199.6111 3.9996,199.6111 C5.3146,199.6111 6.4626,200.4341 9.9086,201.4181 C14.6756,202.8971 20.5916,203.7151 26.6666,203.7151 C37.1826,203.7151 41.6166,200.1021 41.6166,192.3821 L41.6166,191.5641 C41.6166,184.0031 38.0056,181.7051 29.9526,180.0591 L22.2316,178.4191 C5.4746,174.8021 1.3706,169.8751 1.3706,156.2441 L1.3706,155.0901 C1.3706,139.8131 10.2406,132.7491 28.9696,132.7491 C37.1826,132.7491 44.4116,133.8971 49.8296,135.5441 C51.4766,136.0351 51.8016,136.6921 51.8016,137.6761 C51.8016,138.4981 51.3106,140.1391 50.8196,142.4421 L49.9956,145.5621 C49.5046,147.3681 49.1726,147.8661 48.0246,147.8661 C47.2006,147.8661 45.8866,147.5341 44.7376,147.2031 C41.1256,146.2201 34.8856,145.3961 29.9526,145.3961 C18.7846,145.3961 15.4986,148.1911 15.4986,155.0901 L15.4986,155.9131 C15.4986,161.6621 18.2876,163.9601 27.8206,166.0981 L35.3756,167.7431 C49.9956,170.8641 55.7446,176.6071 55.7446,190.9071 L55.7446,192.2161 C55.7446,207.8241 45.7266,216.2021 26.3406,216.2021" id="Fill-11" fill="#1F201F"></path>
            <path d="M93.1453,216.2021 L88.0523,216.2021 C71.1293,216.2021 63.7403,207.3271 63.7403,192.5471 L63.7403,189.9181 C63.7403,181.2081 66.3693,174.4751 71.6263,170.5321 C76.3873,166.7551 83.2863,165.2741 96.9223,165.2741 L100.8663,165.2741 C104.1523,165.2741 107.9293,165.4391 110.8903,165.7651 L110.8903,158.8671 C110.8903,148.1911 105.7923,145.3961 94.6243,145.3961 C89.3673,145.3961 83.1253,146.2201 76.7193,147.8661 C74.7473,148.3571 73.9243,148.5171 73.2673,148.5171 C72.1193,148.5171 71.4603,147.8661 71.1293,146.2201 L70.4723,143.0991 C69.9813,140.6361 69.8153,139.4871 69.8153,138.8301 C69.8153,137.6761 70.4723,136.8581 72.1193,136.3671 C78.1943,134.3891 87.5613,132.7491 95.9393,132.7491 C116.7993,132.7491 126.0013,139.8131 126.0013,160.6741 L126.0013,212.4251 C126.0013,214.0651 125.3443,214.7221 123.3733,214.7221 L116.9653,214.7221 C114.9943,214.7221 114.1703,214.0651 113.8453,212.4251 L113.1883,207.6581 L112.8563,207.6581 C109.7363,213.4081 103.3293,216.2021 93.1453,216.2021 M94.7853,177.5971 C83.2863,177.5971 79.0163,180.3911 79.0163,190.0841 L79.0163,192.3821 C79.0163,200.5941 82.1373,203.8811 90.5153,203.8811 L95.6083,203.8811 C105.6323,203.8811 110.8903,200.2681 110.8903,190.4101 L110.8903,178.0881 C108.2613,177.7631 104.9753,177.5971 102.0143,177.5971 L94.7853,177.5971" id="Fill-13" fill="#1F201F"></path>
            <path d="M169.9207,214.7226 L161.0507,214.7226 C157.2727,214.7226 155.6267,213.5746 153.9857,209.4646 C145.7747,188.9306 137.8867,163.3036 132.1377,140.9626 C131.8057,139.6486 131.1487,137.3506 131.1487,136.0356 C131.1487,134.7216 131.8057,134.2306 133.6117,134.2306 L142.6527,134.2306 C144.7847,134.2306 145.7747,134.8816 146.2657,137.0186 C151.5237,158.0446 157.5987,178.7456 164.9937,200.2696 L166.1437,200.2696 C173.5327,178.7456 179.6127,157.7196 184.7057,137.0186 C185.1967,134.8816 186.1867,134.2306 188.3177,134.2306 L197.3537,134.2306 C199.1597,134.2306 199.8167,134.7216 199.8167,136.0356 C199.8167,137.3506 199.1597,139.6486 198.8337,140.9626 C193.0847,163.3036 185.1967,188.9306 176.9847,209.4646 C175.3447,213.5746 173.6977,214.7226 169.9207,214.7226" id="Fill-15" fill="#1F201F"></path>
            <path d="M231.4773,214.7226 L226.7093,214.7226 C213.7313,214.7226 207.8213,210.1216 207.8213,195.8346 L207.8213,137.1846 C207.8213,134.8816 208.8043,134.2306 211.1083,134.2306 L219.6463,134.2306 C222.1153,134.2306 222.9323,134.8816 222.9323,137.1846 L222.9323,195.8346 C222.9323,200.7606 224.7443,202.2416 229.1793,202.2416 L231.8023,202.2416 C233.9403,202.2416 234.4313,202.7326 234.4313,204.7036 L234.4313,211.7686 C234.4313,213.9066 233.9403,214.7226 231.4773,214.7226 M215.8683,123.7136 L215.0513,123.7136 C209.7923,123.7136 205.5183,120.9186 205.5183,114.1866 L205.5183,113.0376 C205.5183,106.2996 209.7923,103.5046 215.0513,103.5046 L215.8683,103.5046 C221.2913,103.5046 225.2293,106.2996 225.2293,113.0376 L225.2293,114.1866 C225.2293,120.9186 221.2913,123.7136 215.8683,123.7136" id="Fill-17" fill="#1F201F"></path>
            <path d="M303.5222,214.7226 L294.9782,214.7226 C292.6742,214.7226 291.6922,214.0656 291.6922,211.7686 L291.6922,164.4516 C291.6922,150.6556 286.9252,145.0726 274.4432,145.0726 C263.6022,145.0726 257.5272,149.1756 257.5272,162.1546 L257.5272,211.7686 C257.5272,214.0656 256.6982,214.7226 254.2342,214.7226 L245.6902,214.7226 C243.3922,214.7226 242.4102,214.0656 242.4102,211.7686 L242.4102,136.6936 C242.4102,134.7216 243.2332,134.2306 245.0392,134.2306 L250.7882,134.2306 C252.7532,134.2306 253.5772,134.7216 253.9092,136.6936 L254.7312,141.9516 L255.0572,141.9516 C259.6582,136.3626 267.2132,132.7496 278.3802,132.7496 C297.1162,132.7496 306.8092,141.4536 306.8092,165.1096 L306.8092,211.7686 C306.8092,214.0656 305.9862,214.7226 303.5222,214.7226" id="Fill-19" fill="#1F201F"></path>
            <path d="M350.1208,245.4453 C338.6218,245.4453 326.1398,242.9823 317.7618,239.5303 C315.9488,238.7073 315.2918,238.0493 315.2918,236.9013 C315.2918,236.2443 315.6178,235.2553 316.1148,233.4493 L317.7618,228.6883 C318.0868,227.5343 318.9098,227.2083 319.4008,227.2083 C320.0588,227.2083 320.7158,227.5343 321.6988,227.8653 C329.2608,230.8203 339.7698,233.1233 348.9658,233.1233 C360.6368,233.1233 367.6948,229.3453 367.6948,218.6643 L367.6948,217.3493 C367.6948,210.1253 364.4138,204.3763 357.5108,201.4153 C354.7218,201.9133 351.4348,202.2383 347.3258,202.2383 C324.0028,202.2383 314.7948,191.7213 314.7948,169.2163 L314.7948,166.2603 C314.7948,141.6233 325.4758,132.7473 347.3258,132.7473 C356.5268,132.7473 364.4138,134.0613 370.3298,138.0053 C373.1188,135.5423 376.4048,134.2273 381.4968,134.2273 L387.2528,134.2273 C389.3848,134.2273 390.0408,134.7183 390.0408,136.8563 L390.0408,143.4283 C390.0408,145.4003 389.7098,146.0573 387.4118,146.0573 L382.8108,146.0573 C380.6798,146.0573 378.5358,146.3833 377.0618,147.0413 C379.0338,152.1323 379.8568,158.0493 379.8568,166.2603 L379.8568,169.2163 C379.8568,185.1563 375.5818,192.5463 369.3408,195.8323 C378.5358,200.7573 382.9768,209.1363 382.9768,218.5043 L382.9768,220.3093 C382.9768,236.9013 371.8048,245.4453 350.1208,245.4453 M347.3258,144.7433 C333.8548,144.7433 330.2428,150.9843 330.2428,165.6043 L330.2428,169.2163 C330.2428,183.5093 333.6888,190.4143 347.3258,190.4143 C361.1278,190.4143 364.4138,183.5093 364.4138,169.0553 L364.4138,165.6043 C364.4138,150.9843 360.3058,144.7433 347.3258,144.7433" id="Fill-21" fill="#1F201F"></path>
            <path d="M43.2761,347.5117 L35.5551,347.5117 C27.0101,347.5117 20.9351,345.3797 17.1581,340.9397 C13.5461,336.6697 11.7341,330.4297 11.7341,322.0507 L11.7341,276.3807 L1.7151,276.3807 C0.5601,276.3807 0.0691,276.0487 0.0691,274.5737 L0.0691,271.2877 C0.0691,269.8077 0.5601,269.3167 1.7151,269.1507 L11.7341,267.0197 L11.7341,248.4557 C11.7341,247.3017 12.5571,246.4787 13.7061,246.4787 L20.6041,246.4787 C21.7581,246.4787 22.4101,247.3017 22.4101,248.4557 L22.4101,267.0197 L41.6361,267.0197 C42.7851,267.0197 43.2761,267.5107 43.2761,268.6587 L43.2761,274.7407 C43.2761,275.7237 42.7851,276.3807 41.6361,276.3807 L22.4101,276.3807 L22.4101,320.7367 C22.4101,326.6517 22.9071,331.2457 25.3711,334.2067 C27.5081,337.0017 31.2861,338.3107 37.3611,338.3107 L43.2761,338.3107 C44.2651,338.3107 45.2481,338.3107 45.2481,340.1217 L45.2481,345.7057 C45.2481,346.8547 44.7561,347.5117 43.2761,347.5117" id="Fill-23" fill="#1F201F"></path>
            <path d="M61.1375,347.5117 L55.8795,347.5117 C53.9075,347.5117 53.2495,346.8547 53.2495,345.3797 L53.2495,268.8247 C53.2495,267.6697 53.9075,267.0197 55.2215,267.0197 L59.9885,267.0197 C61.4685,267.0197 61.7945,267.6697 61.9595,268.8247 L62.6175,277.3637 L62.9435,277.3637 C65.9045,271.9457 71.8135,267.0197 82.0035,267.0197 L86.2735,267.0197 C87.9125,267.0197 88.4095,267.5107 88.4095,268.9907 L88.4095,274.5737 C88.4095,275.8887 87.7525,276.3807 86.2735,276.3807 L81.8375,276.3807 C73.4595,276.3807 69.5155,278.8437 66.8865,283.1187 C64.7485,286.5647 63.9325,290.9997 63.9325,296.0917 L63.9325,345.3797 C63.9325,346.6887 63.1095,347.5117 61.1375,347.5117" id="Fill-25" fill="#1F201F"></path>
            <g id="Group-29" transform="translate(96.000000, 266.988000)">
                <mask id="mask-2" fill="white">
                    <use xlink:href="#path-1"></use>
                </mask>
                <g id="Clip-28"></g>
                <path d="M28.1687,82.0003 C19.2987,82.0003 12.5607,80.0283 7.7997,76.0913 C2.7067,71.8213 0.4037,65.5743 0.4037,57.3613 L0.4037,2.6553 C0.4037,1.1763 1.3927,0.0323 2.7067,0.0323 L8.7817,0.0323 C10.4287,0.0323 11.0857,1.1763 11.0857,2.3303 L11.0857,56.0473 C11.0857,62.6203 12.2337,66.0653 15.3557,68.8603 C18.6417,71.8213 23.0757,72.7983 30.7977,72.7983 C42.4617,72.7983 49.0287,68.3693 49.0287,56.7043 L49.0287,2.1643 C49.0287,0.8503 49.8527,0.0323 51.0007,0.0323 L57.8987,0.0323 C59.2197,0.0323 59.7107,0.8503 59.7107,2.1643 L59.7107,78.7203 C59.7107,79.8683 59.2197,80.5253 58.0647,80.5253 L53.1387,80.5253 C51.8237,80.5253 51.3327,80.0283 51.1667,78.7203 L50.3437,72.6393 L50.0177,72.6393 C45.7487,79.0453 38.6847,82.0003 28.1687,82.0003" id="Fill-27" fill="#1F201F" mask="url(#mask-2)"></path>
            </g>
            <g id="Group-32" transform="translate(162.000000, 264.988000)">
                <mask id="mask-4" fill="white">
                    <use xlink:href="#path-3"></use>
                </mask>
                <g id="Clip-31"></g>
                <path d="M25.3796,84.0003 C17.0006,84.0003 8.1306,82.2003 3.0386,80.0623 C1.3926,79.4053 0.7346,78.7483 1.0676,77.2683 L2.3816,72.5073 C2.7366,71.2043 3.3466,70.5823 4.2706,70.5823 C4.6316,70.5823 5.0396,70.6773 5.5016,70.8603 C11.9086,73.3243 18.4816,74.7983 25.3796,74.7983 C33.2666,74.7983 36.7126,73.6553 39.3416,71.5183 C41.9706,69.3803 43.4506,65.9293 43.4506,61.0023 L43.4506,60.0193 C43.4506,54.2703 42.4616,51.1493 39.0166,49.0123 C36.5466,47.5313 32.9346,46.7083 27.5116,45.5603 L22.9166,44.7423 C17.4916,43.7593 13.2236,42.4383 10.1036,40.6333 C4.0216,37.1813 1.7246,31.2713 1.7246,23.5503 L1.7246,21.9043 C1.7246,7.2843 10.7596,0.5533 28.0086,0.5533 C35.0716,0.5533 41.1476,1.3753 46.4056,2.8503 C48.3776,3.3423 49.1996,4.3303 48.8686,5.8053 L47.8856,10.0793 C47.5076,11.6023 46.8316,12.4363 45.4876,12.4363 C45.0846,12.4363 44.6296,12.3653 44.1086,12.2113 C39.3416,10.9023 33.1006,9.7543 27.8426,9.7543 C20.7786,9.7543 17.0006,11.0623 14.8636,13.0343 C13.0576,14.6813 11.5766,17.8013 11.5766,21.5783 L11.5766,22.7283 C11.5766,26.1803 12.2336,28.8033 14.2056,30.7803 C16.3436,32.9113 19.2986,34.2273 27.0196,35.7063 L31.2946,36.5293 C39.3416,38.1703 45.9136,40.3023 49.1996,44.4113 C51.6636,47.6973 53.3036,52.4643 53.3036,58.8703 L53.3036,60.5113 C53.3036,66.2603 51.6636,72.1753 48.7086,75.7933 C44.2686,81.3773 36.5466,84.0003 25.3796,84.0003" id="Fill-30" fill="#1F201F" mask="url(#mask-4)"></path>
            </g>
            <path d="M260.7009,347.5117 L252.9789,347.5117 C244.4399,347.5117 238.3599,345.3797 234.5819,340.9397 C230.9639,336.6697 229.1579,330.4297 229.1579,322.0507 L229.1579,276.3807 L219.1389,276.3807 C217.9909,276.3807 217.4929,276.0487 217.4929,274.5737 L217.4929,271.2877 C217.4929,269.8077 217.9909,269.3167 219.1389,269.1507 L229.1579,267.0197 L229.1579,248.4557 C229.1579,247.3017 229.9809,246.4787 231.1359,246.4787 L238.0279,246.4787 C239.1769,246.4787 239.8399,247.3017 239.8399,248.4557 L239.8399,267.0197 L259.0549,267.0197 C260.2089,267.0197 260.7009,267.5107 260.7009,268.6587 L260.7009,274.7407 C260.7009,275.7237 260.2089,276.3807 259.0549,276.3807 L239.8399,276.3807 L239.8399,320.7367 C239.8399,326.6517 240.3319,331.2457 242.7949,334.2067 C244.9319,337.0017 248.7099,338.3107 254.7849,338.3107 L260.7009,338.3107 C261.6889,338.3107 262.6719,338.3107 262.6719,340.1217 L262.6719,345.7057 C262.6719,346.8547 262.1799,347.5117 260.7009,347.5117" id="Fill-33" fill="#1F201F"></path>
        </g>
    </g>
</svg>